<svg xmlns="http://www.w3.org/2000/svg" xmlns:xlink="http://www.w3.org/1999/xlink" width="1184" height="253.569" viewBox="0 0 1184 253.569">
  <defs>
    <clipPath id="clip-path">
      <rect id="Rectangle_4938" data-name="Rectangle 4938" width="1184" height="253.569" fill="#00297a"/>
    </clipPath>
  </defs>
  <g id="okta-auth0-color" clip-path="url(#clip-path)">
    <path id="Path_9039" data-name="Path 9039" d="M276.27,13h-46.7l14.453,44.966h46.488l-37.4,26.878,14.411,45.262a61.618,61.618,0,0,0,23.5-71.845ZM168.5,57.966h46.488L229.572,13H183.084L168.63,57.966a61.751,61.751,0,0,0,23.5,71.845L206.5,84.845ZM192,129.811l37.571,26.878,37.613-26.709-37.613-27.216ZM544.293,56.656A21.131,21.131,0,0,0,531.615,59.7a20.87,20.87,0,0,0-8.452,10.1h-.888V32.99H505.5v96.737h16.9V87.718a15.989,15.989,0,0,1,.761-6.3,15.179,15.179,0,0,1,3.3-5.409,14.8,14.8,0,0,1,5.24-3.55,14.491,14.491,0,0,1,6.255-1.057c8.875,0,14.115,5.621,14.115,15.3v43.022h16.9V83.873C568.721,66.545,558.916,56.825,544,56.825Zm70.45-24c-22.906,0-36.683,17.961-36.725,49.15s13.693,49.531,36.725,49.531,36.81-18.13,36.81-49.4-14.073-49.15-36.979-49.15ZM595.514,81.971c0-22.737,7.4-34.739,19.229-34.739,8.114,0,14.115,5.536,17.158,16.271L595.937,89.747a51.43,51.43,0,0,1-.465-7.776Zm19.229,34.824c-8.452,0-14.5-5.917-17.412-17.37l36.3-26.413a70.51,70.51,0,0,1,.465,8.959c0,22.906-7.48,34.824-19.525,34.824ZM429,99.509a15.521,15.521,0,0,1-.845,6.212,14.941,14.941,0,0,1-3.212,5.325,15.549,15.549,0,0,1-5.114,3.592,16.019,16.019,0,0,1-6.128,1.226,13.052,13.052,0,0,1-5.536-1.057,13.256,13.256,0,0,1-4.607-3.254,13.393,13.393,0,0,1-2.874-4.9,14.053,14.053,0,0,1-.549-5.621V57.84h-16.9v45.769c0,17.285,9.8,27.047,23.962,27.047a21.684,21.684,0,0,0,12.932-3.55,21.978,21.978,0,0,0,8.452-10.27h.549v12.678h16.44V57.67h-16.9ZM344.777,56.783c-15.13,0-26.752,6.72-30.513,19.821l15.848,2.24a14.325,14.325,0,0,1,14.749-9.086c7.861,0,12.171,3.973,12.171,11.073v.3c0,4.691-5.114,5.071-17.792,6.424-14.115,1.479-27.259,5.663-27.259,21.849,0,14.073,10.312,21.638,24.047,21.638a22.189,22.189,0,0,0,21.131-11.326h.549V129.6h16.271V81.506C374.064,62.446,358.85,56.783,344.777,56.783Zm12.3,46.953a15.58,15.58,0,0,1-1.437,6.043,15.247,15.247,0,0,1-3.719,4.945,14.824,14.824,0,0,1-5.367,3.085,14.581,14.581,0,0,1-6.17.718c-7.015,0-12.087-3.212-12.087-9.382s5.663-9.382,13.228-10.27a54.606,54.606,0,0,0,15.552-3.465ZM481.831,39.878h-16.9V57.84H454.783V71.279h10.27v39.895c0,13.481,9.8,20.159,22.525,19.778a32.673,32.673,0,0,0,8.452-1.268V116.33a55.726,55.726,0,0,1-6.466.634c-4.226,0-7.649-1.521-7.649-8.452V71.321h14.073v-13.4H481.915Z" transform="translate(532.447 41.94)" fill="#00297a"/>
    <path id="Path_9040" data-name="Path 9040" d="M144.452,0H136V253.569h8.452Z" transform="translate(438.757)" fill="#aaaab4"/>
    <path id="Path_9041" data-name="Path 9041" d="M58.057,15.75a58.152,58.152,0,1,0,41.02,17.017A58.068,58.068,0,0,0,58.057,15.75Zm0,86.974a28.779,28.779,0,1,1,11.059-2.174A28.864,28.864,0,0,1,58.057,102.724Z" transform="translate(-0.032 50.812)" fill="#00297a"/>
    <path id="Path_9042" data-name="Path 9042" d="M59.949,123.285a5.156,5.156,0,0,1,8.706-3.719c14.623,14.918,38.416,40.064,38.416,40.36a3.17,3.17,0,0,0,2.2,1.268,6.207,6.207,0,0,0,2.493.3h26.033a5.114,5.114,0,0,0,4.226-8.072l-43.4-44.755-2.2-2.493c-4.945-5.917-4.226-8.072,1.268-14.327l34.443-38.035a4.987,4.987,0,0,0-4.226-8.114h-23.54a4.227,4.227,0,0,0-2.2.338,3.042,3.042,0,0,0-2.155,1.226S80.7,67.584,69.289,80.516a5.24,5.24,0,0,1-9.044-3.423V11.207a4.649,4.649,0,0,0-4.987-4.691H35.987A4.437,4.437,0,0,0,31,10.743v146.1c0,3.423,2.789,4.226,4.987,4.226H54.962a4.607,4.607,0,0,0,4.987-4.226Z" transform="translate(100.011 20.911)" fill="#00297a"/>
    <path id="Path_9043" data-name="Path 9043" d="M128.3,155.971l-2.155-19.525a4.606,4.606,0,0,0-5.283-4.226,23.272,23.272,0,0,1-4.226.3,28.907,28.907,0,0,1-28.865-27.3V80.28a5.325,5.325,0,0,1,5.283-5.621h25.822a4.775,4.775,0,0,0,4.649-4.945V51.331A5.071,5.071,0,0,0,119.3,45.71H93.223a5.283,5.283,0,0,1-5.578-5.283V11.267a4.648,4.648,0,0,0-4.987-4.691H63.429A4.227,4.227,0,0,0,58.78,10.8v94.581a58.111,58.111,0,0,0,58.025,56.588,68.9,68.9,0,0,0,7.776-.634,4.944,4.944,0,0,0,3.719-5.367Z" transform="translate(189.633 21.147)" fill="#00297a"/>
    <path id="Path_9044" data-name="Path 9044" d="M212.42,101.881c-16.482,0-18.975-5.917-18.975-27.935V20.823a4.851,4.851,0,0,0-3.06-4.643,4.858,4.858,0,0,0-1.927-.344H169.186a4.946,4.946,0,0,0-4.987,4.987v2.493a59.508,59.508,0,0,0-28.527-7.48,58.067,58.067,0,1,0,0,116.093,57.222,57.222,0,0,0,37.4-13.9c5.579,8.452,14.285,13.693,27.935,13.989,2.451,0,14.623.3,14.623-5.283V106.191a3.844,3.844,0,0,0-3.212-4.311Zm-77,.634a28.779,28.779,0,1,1,11.059-2.174A28.864,28.864,0,0,1,135.419,102.515Z" transform="translate(245.315 51.022)" fill="#00297a"/>
  </g>
</svg>